<?xml version="1.0" encoding="utf-8"?>
<!-- Generator: Adobe Illustrator 21.1.0, SVG Export Plug-In . SVG Version: 6.00 Build 0)  -->
<svg version="1.1" xmlns="http://www.w3.org/2000/svg" xmlns:xlink="http://www.w3.org/1999/xlink" x="0px" y="0px" width="96px"
	 height="96px" viewBox="0 0 96 96" enable-background="new 0 0 96 96" xml:space="preserve">
<g id="guides">
</g>
<g id="Darth-Vader">
</g>
<g id="Storm-Trooper">
	<path fill="none" stroke="#000000" stroke-width="4" stroke-linecap="round" stroke-linejoin="round" stroke-miterlimit="10" d="
		M56,83.286c0,4.418-3.582,8-8,8c-4.418,0-8-3.582-8-8c0-4.418,3.582-12.571,8-12.571C52.418,70.714,56,78.867,56,83.286z"/>
	<g>
		
			<ellipse transform="matrix(0.7071 -0.7071 0.7071 0.7071 -34.9447 71.636)" fill="none" stroke="#000000" stroke-width="4" stroke-linecap="round" stroke-linejoin="round" stroke-miterlimit="10" cx="69" cy="78" rx="5" ry="5"/>
	</g>
	<g>
		
			<ellipse transform="matrix(0.7071 -0.7071 0.7071 0.7071 -47.2462 41.9375)" fill="none" stroke="#000000" stroke-width="4" stroke-linecap="round" stroke-linejoin="round" stroke-miterlimit="10" cx="27" cy="78" rx="5" ry="5"/>
	</g>
	<path fill="none" stroke="#000000" stroke-width="4" stroke-linecap="round" stroke-linejoin="round" stroke-miterlimit="10" d="
		M40.948,87.066c-0.553,1.066-1.568,2.524-2.463,3.419c-4.686,4.686-12.284,4.686-16.971,0l-5-5
		c-2.692-2.692-3.838-6.346-3.437-9.856C13.078,75.629,6,65.875,6,62c0-4.418,3.582-8,8-8h-4l2-16h2V26l0,0C14,12.8,24.8,2,38,2h10
		h10c13.2,0,24,10.8,24,24l0,0v12h2l2,16h-4c4.418,0,8,3.582,8,8c0,3.875-7.078,13.629-7.078,13.629
		c0.401,3.51-0.744,7.164-3.437,9.856l-5,5c-4.686,4.686-12.284,4.686-16.971,0c-0.895-0.895-1.91-2.353-2.463-3.419"/>
	<path fill="none" stroke="#000000" stroke-width="4" stroke-linecap="round" stroke-linejoin="round" stroke-miterlimit="10" d="
		M74,45c0,2.762-2.239,5-5,5c-5.563,0-15-5.125-15-12h20V45z"/>
	<path fill="none" stroke="#000000" stroke-width="4" stroke-linecap="round" stroke-linejoin="round" stroke-miterlimit="10" d="
		M22,45c0,2.762,2.238,5,5,5c5.562,0,15-5.125,15-12H22V45z"/>
	<path fill="none" stroke="#000000" stroke-width="4" stroke-linecap="round" stroke-linejoin="round" stroke-miterlimit="10" d="
		M68,65c-2.958,0-6.375-2.5-11.75-5.5C53.846,58.158,51.258,57,48,57c-3.258,0-5.846,1.158-8.25,2.5C34.375,62.5,30.958,65,28,65"/>
	
		<line fill="none" stroke="#000000" stroke-width="4" stroke-linecap="round" stroke-miterlimit="10" x1="14" y1="30" x2="82" y2="30"/>
	
		<line fill="none" stroke="#000000" stroke-width="4" stroke-linecap="round" stroke-miterlimit="10" x1="14.08" y1="24" x2="81.917" y2="24"/>
</g>
<g id="Storm-Trooper-2">
</g>
<g id="Storm-Trooper-3">
</g>
<g id="Death-Star">
</g>
<g id="Falcon">
</g>
<g id="Kylo">
</g>
<g id="Boba-Fett">
</g>
<g id="R2D2">
</g>
<g id="Battle-Droid">
</g>
<g id="BB8">
</g>
<g id="C3PO">
</g>
<g id="BONUS">
</g>
</svg>
