<?xml version="1.0" encoding="iso-8859-1"?>
<!-- Generator: Adobe Illustrator 19.0.0, SVG Export Plug-In . SVG Version: 6.00 Build 0)  -->
<svg version="1.1" id="Layer_1" xmlns="http://www.w3.org/2000/svg" xmlns:xlink="http://www.w3.org/1999/xlink" x="0px" y="0px"
	 viewBox="0 0 512 512" style="enable-background:new 0 0 512 512;" xml:space="preserve">
<g>
	<g>
		<g>
			<path d="M209.544,291.283c-5.874,0-10.667,4.788-10.667,10.663c0,5.874,4.792,10.666,10.667,10.666s10.667-4.792,10.667-10.666
				C220.211,296.071,215.418,291.283,209.544,291.283z"/>
			<path d="M302.46,291.283c-5.874,0-10.667,4.788-10.667,10.663c-0.001,5.873,4.792,10.666,10.667,10.666
				c5.874,0,10.667-4.791,10.667-10.666C313.127,296.071,308.334,291.283,302.46,291.283z"/>
			<path d="M278.92,342.477h-45.838c-5.892,0-10.669,4.777-10.669,10.669c0,5.891,4.776,10.669,10.669,10.669h45.838
				c5.892,0,10.669-4.777,10.669-10.669C289.588,347.254,284.812,342.477,278.92,342.477z"/>
			<path d="M458.665,0H53.335c-5.893,0-10.669,4.776-10.669,10.669v490.663c0,5.891,4.775,10.669,10.669,10.669h405.329
				c5.892,0,10.669-4.777,10.669-10.669V10.669C469.333,4.776,464.557,0,458.665,0z M447.996,141.259h-43.768
				c-5.891,0-10.669,4.776-10.669,10.669c0,5.891,4.777,10.669,10.669,10.669h43.768v328.066H64.004V162.596h77.656
				c5.892,0,10.669-4.777,10.669-10.669c0-5.892-4.776-10.669-10.669-10.669H64.004V21.337h383.992V141.259z"/>
			<path d="M184.252,159.51c-20.072,15.014-34.992,36.375-43.342,61.92c-0.128,0.339-0.239,0.688-0.332,1.042
				c-0.263,0.825-0.541,1.642-0.789,2.475c-7.011,23.469,0.048,60.282,4.72,84.642c0.846,4.411,1.577,8.22,2.059,11.155
				c8.152,49.51,15.928,59.606,37.043,73.548c-1.744,2.793-4.397,6.971-8.686,13.659c-40.796,15.782-65.607,28.05-85.137,42.043
				c-0.09,0.065-0.169,0.138-0.255,0.203c-0.154,0.117-0.305,0.235-0.452,0.36c-0.137,0.116-0.267,0.239-0.397,0.362
				c-0.117,0.111-0.235,0.222-0.347,0.338c-0.138,0.142-0.269,0.288-0.398,0.436c-0.094,0.111-0.189,0.221-0.28,0.334
				c-0.125,0.157-0.244,0.318-0.359,0.48c-0.085,0.121-0.17,0.243-0.249,0.367c-0.105,0.159-0.202,0.321-0.296,0.485
				c-0.081,0.142-0.159,0.285-0.235,0.43c-0.078,0.153-0.153,0.305-0.222,0.462c-0.076,0.164-0.148,0.332-0.214,0.503
				c-0.057,0.144-0.11,0.29-0.16,0.435c-0.063,0.183-0.121,0.367-0.175,0.555c-0.042,0.146-0.077,0.292-0.112,0.441
				c-0.045,0.186-0.086,0.371-0.121,0.559c-0.03,0.165-0.053,0.332-0.075,0.497c-0.022,0.172-0.046,0.344-0.061,0.517
				c-0.017,0.197-0.025,0.394-0.03,0.591c-0.003,0.107-0.016,0.209-0.016,0.317c0,0.046,0.006,0.09,0.006,0.135
				c0.002,0.212,0.017,0.424,0.032,0.637c0.01,0.142,0.017,0.285,0.032,0.425c0.022,0.201,0.058,0.399,0.092,0.599
				c0.025,0.149,0.046,0.3,0.078,0.448c0.038,0.177,0.089,0.353,0.137,0.529c0.044,0.164,0.083,0.331,0.135,0.492
				c0.05,0.153,0.111,0.301,0.166,0.452c0.067,0.18,0.131,0.362,0.208,0.538c0.057,0.129,0.123,0.256,0.186,0.384
				c0.092,0.191,0.183,0.381,0.287,0.565c0.066,0.115,0.139,0.228,0.209,0.342c0.114,0.189,0.232,0.377,0.357,0.557
				c0.025,0.035,0.045,0.073,0.069,0.109c0.061,0.083,0.127,0.156,0.19,0.238c0.123,0.161,0.247,0.323,0.38,0.477
				c0.11,0.13,0.226,0.253,0.341,0.377c0.117,0.125,0.236,0.249,0.358,0.368c0.138,0.132,0.277,0.257,0.419,0.38
				c0.116,0.101,0.234,0.201,0.354,0.297c0.151,0.119,0.305,0.235,0.463,0.345c0.126,0.091,0.254,0.178,0.384,0.262
				c0.154,0.1,0.309,0.194,0.467,0.285c0.147,0.084,0.296,0.166,0.447,0.244c0.147,0.075,0.294,0.146,0.445,0.213
				c0.171,0.078,0.342,0.153,0.517,0.221c0.14,0.055,0.281,0.107,0.422,0.156c0.188,0.064,0.376,0.124,0.565,0.179
				c0.143,0.039,0.287,0.076,0.43,0.111c0.189,0.045,0.378,0.086,0.569,0.122c0.162,0.029,0.326,0.052,0.49,0.075
				c0.174,0.022,0.348,0.046,0.523,0.061c0.196,0.017,0.392,0.025,0.589,0.03c0.107,0.003,0.209,0.016,0.318,0.016h319.958
				c0.01,0,0.018,0.001,0.028,0.001c0.025,0,0.051-0.004,0.077-0.004c0.373-0.003,0.741-0.025,1.104-0.065
				c0.101-0.012,0.201-0.031,0.3-0.046c0.293-0.041,0.585-0.089,0.87-0.153c0.113-0.025,0.224-0.058,0.335-0.086
				c0.27-0.068,0.534-0.147,0.795-0.237c0.121-0.042,0.24-0.085,0.357-0.131c0.249-0.095,0.491-0.202,0.73-0.314
				c0.121-0.058,0.242-0.112,0.36-0.174c0.247-0.128,0.488-0.27,0.723-0.418c0.096-0.061,0.196-0.114,0.291-0.177
				c0.31-0.208,0.61-0.434,0.896-0.673c0.102-0.085,0.197-0.18,0.296-0.269c0.197-0.177,0.389-0.359,0.572-0.549
				c0.099-0.105,0.195-0.21,0.289-0.319c0.187-0.211,0.364-0.43,0.535-0.656c0.048-0.064,0.102-0.118,0.15-0.185
				c0.027-0.037,0.048-0.078,0.074-0.115c0.121-0.173,0.232-0.352,0.341-0.532c0.075-0.122,0.153-0.243,0.224-0.367
				c0.098-0.176,0.186-0.358,0.274-0.541c0.065-0.137,0.137-0.271,0.197-0.409c0.073-0.169,0.135-0.342,0.201-0.514
				c0.059-0.158,0.122-0.315,0.173-0.474c0.05-0.157,0.09-0.316,0.131-0.475c0.05-0.181,0.102-0.363,0.142-0.545
				c0.029-0.144,0.05-0.29,0.075-0.436c0.035-0.203,0.07-0.406,0.094-0.61c0.015-0.138,0.021-0.278,0.031-0.417
				c0.016-0.214,0.03-0.429,0.033-0.644c0-0.045,0.006-0.089,0.006-0.134c0.002-0.106-0.01-0.208-0.014-0.315
				c-0.005-0.197-0.013-0.394-0.029-0.591c-0.015-0.175-0.037-0.347-0.061-0.52c-0.023-0.165-0.046-0.33-0.075-0.493
				c-0.035-0.191-0.077-0.378-0.121-0.565c-0.035-0.146-0.07-0.29-0.112-0.434c-0.054-0.19-0.114-0.377-0.177-0.561
				c-0.05-0.143-0.102-0.286-0.156-0.427c-0.069-0.173-0.142-0.344-0.219-0.512c-0.068-0.151-0.142-0.301-0.217-0.449
				c-0.077-0.15-0.158-0.297-0.242-0.443c-0.092-0.16-0.188-0.318-0.288-0.473c-0.083-0.128-0.17-0.254-0.258-0.379
				c-0.112-0.158-0.228-0.315-0.35-0.468c-0.094-0.118-0.192-0.234-0.291-0.348c-0.125-0.144-0.252-0.286-0.384-0.422
				c-0.117-0.122-0.241-0.239-0.364-0.354c-0.125-0.117-0.249-0.235-0.38-0.347c-0.154-0.13-0.312-0.252-0.471-0.375
				c-0.082-0.064-0.157-0.132-0.242-0.193c-19.527-13.993-44.338-26.262-85.136-42.045l-8.75-13.621
				c21.165-14.006,28.991-24.264,37.11-73.586c0.482-2.93,1.212-6.735,2.057-11.139c4.674-24.363,11.736-61.181,4.724-84.657
				c-8.098-27.109-23.473-49.737-44.465-65.439c-20.458-15.302-45.269-23.391-71.75-23.392
				C229.524,136.116,204.711,144.205,184.252,159.51z M346.538,305.583c-0.874,4.553-1.628,8.485-2.156,11.693
				c-7.652,46.477-12.511,49.567-32.964,62.574c-1.155,0.734-2.35,1.495-3.59,2.289c-0.889,0.57-1.664,1.25-2.322,2.011
				c-0.007,0.008-0.015,0.017-0.021,0.025c-0.001,0.001-0.001,0.001-0.001,0.001c-0.003,0.004-0.007,0.007-0.011,0.012l-0.001,0.001
				c-0.002,0.004-0.006,0.007-0.009,0.012c-0.001,0-0.002,0.001-0.002,0.001c-0.003,0.004-0.006,0.007-0.01,0.012
				c-0.001,0-0.001,0.001-0.001,0.001c-0.003,0.004-0.006,0.007-0.01,0.011c-0.001,0.001-0.001,0.002-0.001,0.003
				c-0.004,0.003-0.006,0.006-0.01,0.01c-0.001,0.001-0.001,0.002-0.002,0.003c-0.003,0.003-0.005,0.006-0.007,0.01
				c-0.002,0.001-0.002,0.002-0.004,0.003c-0.002,0.003-0.004,0.006-0.007,0.01c-0.001,0.001-0.001,0.002-0.002,0.003
				c-0.003,0.003-0.005,0.006-0.009,0.01c-0.001,0.001-0.001,0.002-0.003,0.003c-0.002,0.003-0.004,0.006-0.007,0.01
				c-0.001,0.001-0.001,0.002-0.003,0.003c-0.002,0.003-0.004,0.006-0.006,0.008c-0.002,0.002-0.003,0.003-0.004,0.005
				c-0.002,0.003-0.004,0.005-0.006,0.007c-0.002,0.002-0.003,0.003-0.004,0.005c-0.002,0.002-0.004,0.005-0.006,0.007
				c-0.002,0.002-0.003,0.004-0.004,0.005c-0.002,0.003-0.004,0.005-0.006,0.007c-0.002,0.002-0.003,0.004-0.004,0.006
				c-0.002,0.002-0.004,0.004-0.006,0.006c-0.002,0.002-0.003,0.004-0.005,0.006c-0.001,0.002-0.003,0.004-0.005,0.006
				c-0.002,0.002-0.003,0.004-0.004,0.006c-0.002,0.002-0.004,0.004-0.006,0.006c-0.002,0.002-0.003,0.004-0.004,0.006
				c-0.002,0.002-0.004,0.004-0.006,0.006c-0.001,0.002-0.003,0.004-0.004,0.007c-0.002,0.002-0.004,0.003-0.005,0.005
				c-0.002,0.002-0.004,0.005-0.006,0.007c-0.001,0.002-0.003,0.003-0.004,0.005c-0.002,0.003-0.003,0.005-0.005,0.008
				s-0.003,0.003-0.004,0.005c-0.002,0.003-0.005,0.005-0.007,0.009c-0.001,0.001-0.002,0.003-0.003,0.004
				c-0.002,0.003-0.004,0.006-0.006,0.008c-0.002,0.001-0.003,0.003-0.004,0.004c-0.002,0.003-0.004,0.006-0.008,0.01
				c-0.001,0.001-0.001,0.002-0.003,0.003c-0.002,0.003-0.004,0.006-0.006,0.01c-0.002,0.001-0.002,0.002-0.003,0.003
				c-0.003,0.003-0.005,0.006-0.007,0.011c-0.001,0-0.002,0.002-0.002,0.002c-0.003,0.003-0.006,0.007-0.008,0.011
				c-0.001,0.001-0.002,0.002-0.002,0.002c-0.003,0.004-0.006,0.007-0.008,0.012c-0.001,0-0.001,0.001-0.002,0.001
				c-0.002,0.004-0.006,0.007-0.008,0.012c0,0-0.001,0.001-0.002,0.002c-0.002,0.003-0.005,0.007-0.008,0.011
				c0,0.001,0,0.001-0.001,0.002c-0.003,0.003-0.005,0.007-0.01,0.012v0.001c-0.004,0.004-0.006,0.008-0.011,0.013
				c-0.002,0.004-0.006,0.009-0.01,0.013h-0.001c-1.187,1.531-1.924,3.345-2.158,5.23c-0.002,0.011-0.003,0.021-0.004,0.031
				c-0.002,0.011-0.002,0.021-0.004,0.031c0,0.001,0,0.001,0,0.001c0,0.005-0.001,0.011-0.002,0.016
				c0,0.005-0.001,0.011-0.002,0.016v0.001c0,0.005,0,0.01-0.001,0.015c0,0,0,0.001-0.001,0.001c0,0.005,0,0.01-0.001,0.015
				c0,0.001,0,0.001,0,0.002c-0.001,0.004-0.001,0.01-0.001,0.014c0,0.001,0,0.001-0.001,0.002c-0.001,0.004-0.001,0.01-0.001,0.014
				c0,0.001,0,0.002,0,0.003c-0.001,0.004-0.002,0.009-0.002,0.014c0,0.001,0,0.001,0,0.002c0,0.004-0.001,0.009-0.002,0.014
				c0,0.001,0,0.002,0,0.003c0,0.004,0,0.009-0.001,0.013c0,0.001-0.001,0.002-0.001,0.003c0,0.004,0,0.009,0,0.013
				c-0.001,0.001-0.001,0.002-0.001,0.004c-0.001,0.003-0.001,0.009-0.001,0.012c0,0.001,0,0.003,0,0.004
				c-0.001,0.004-0.002,0.009-0.002,0.012c0,0.002,0,0.003,0,0.004c0,0.004-0.001,0.009-0.002,0.013c0,0.001,0,0.002,0,0.004
				c0,0.004,0,0.007-0.001,0.012c0,0.002,0,0.002-0.001,0.004c0,0.004,0,0.008,0,0.012c0,0.002,0,0.003-0.001,0.005
				c0,0.003-0.001,0.007-0.001,0.011c0,0.002,0,0.004,0,0.005c0,0.004-0.001,0.007-0.001,0.011
				c-0.001,0.002-0.001,0.004-0.001,0.006c0,0.003,0,0.006,0,0.01c-0.001,0.002-0.001,0.005-0.001,0.007
				c-0.001,0.003-0.001,0.006-0.001,0.01c0,0.002,0,0.004,0,0.006c-0.001,0.003-0.001,0.006-0.002,0.01c0,0.002,0,0.004,0,0.006
				c0,0.003,0,0.006,0,0.01c-0.001,0.002-0.001,0.005-0.002,0.008c0,0.003,0,0.005,0,0.008c0,0.003,0,0.005,0,0.008
				c-0.001,0.003-0.001,0.006-0.002,0.01c0,0.002,0,0.004,0,0.007s0,0.005,0,0.007c-0.001,0.003-0.001,0.006-0.002,0.01
				c0,0.002,0,0.005,0,0.007s0,0.005,0,0.009c0,0.002-0.001,0.005-0.001,0.007c-0.001,0.003-0.001,0.005-0.001,0.008
				c0,0.002,0,0.005,0,0.009c0,0.002,0,0.005-0.001,0.009c0,0.002-0.001,0.004-0.001,0.007s0,0.005,0,0.01c0,0.002,0,0.004,0,0.006
				c-0.001,0.003-0.001,0.006-0.002,0.01c0,0.002,0,0.004,0,0.006c0,0.003,0,0.006,0,0.01c0,0.002-0.001,0.005-0.001,0.008
				c0,0.003-0.001,0.006-0.001,0.01c0,0.002,0,0.004,0,0.005c0,0.004,0,0.008,0,0.012c-0.001,0.001-0.001,0.003-0.001,0.005
				c-0.001,0.003-0.001,0.006-0.001,0.011c0,0.002,0,0.003,0,0.005c0,0.004,0,0.008,0,0.011c-0.001,0.002-0.001,0.004-0.001,0.006
				c-0.001,0.003-0.001,0.006-0.001,0.011c0,0.001,0,0.003,0,0.005c0,0.003,0,0.006-0.001,0.011c0,0.002,0,0.004,0,0.005
				c-0.001,0.004-0.001,0.007-0.001,0.011c0,0.002,0,0.004,0,0.005c0,0.004,0,0.007,0,0.012c-0.001,0.002-0.001,0.003-0.001,0.005
				c0,0.003-0.001,0.007-0.001,0.012c0,0.001,0,0.002,0,0.004c0,0.004,0,0.007,0,0.012c0,0.002,0,0.003-0.001,0.004
				c0,0.004,0,0.009-0.001,0.012c0,0.002,0,0.003,0,0.005c0,0.003,0,0.007,0,0.012c0,0.001,0,0.002,0,0.004
				c-0.001,0.004-0.001,0.008-0.001,0.012c0,0.001-0.001,0.003-0.001,0.004c0,0.004,0,0.009,0,0.013c0,0.001,0,0.002,0,0.004
				c0,0.004,0,0.007-0.001,0.013c0,0.001,0,0.002,0,0.003c0,0.004-0.001,0.009-0.001,0.013c0,0.001,0,0.002,0,0.003
				c0,0.004,0,0.01,0,0.014c0,0.001,0,0.001,0,0.002c0,0.005-0.001,0.01-0.001,0.014c0,0.001,0,0.002,0,0.002
				c-0.001,0.005-0.001,0.011-0.001,0.015c0,0,0,0.001,0,0.002c0,0.004,0,0.01,0,0.014c0,0.001,0,0.002,0,0.002
				c0,0.005-0.001,0.01-0.001,0.015v0.001c-0.001,0.005-0.001,0.01-0.001,0.015c0,0.001,0,0.001,0,0.002c0,0.005,0,0.01,0,0.015
				c0,0,0,0,0,0.001c0,0.005,0,0.01-0.001,0.015c0,0.001,0,0.001,0,0.001c0,0.005,0,0.011-0.001,0.016v0.001c0,0.004,0,0.01,0,0.015
				v0.001c0,0.005,0,0.011,0,0.016c0,0.005-0.001,0.011-0.001,0.016v0.001c-0.001,0.011-0.001,0.021-0.001,0.031
				c-0.025,0.898,0.064,1.804,0.27,2.695h0.001c0,0.005,0.002,0.011,0.003,0.016c0.001,0.005,0.002,0.011,0.003,0.016v0.001
				c0.002,0.004,0.003,0.011,0.004,0.015v0.001c0.001,0.005,0.002,0.011,0.004,0.016c0.001,0.005,0.002,0.011,0.003,0.016
				c0,0,0,0,0.001,0.001c0,0.004,0.002,0.01,0.002,0.015c0.001,0,0.001,0,0.001,0.001c0.001,0.005,0.003,0.01,0.003,0.015
				c0,0.001,0,0.001,0,0.001c0.002,0.005,0.003,0.01,0.004,0.015c0,0.001,0,0.001,0,0.002c0.002,0.004,0.002,0.01,0.004,0.014
				c0,0.001,0,0.001,0,0.002c0.002,0.004,0.002,0.01,0.004,0.014c0,0.001,0,0.002,0,0.002c0.001,0.005,0.002,0.01,0.004,0.014
				c0,0.001,0,0.002,0,0.003c0.001,0.004,0.002,0.008,0.003,0.013c0.001,0.001,0.001,0.002,0.001,0.003
				c0.001,0.004,0.002,0.008,0.003,0.014c0,0.001,0.001,0.001,0.001,0.002c0,0.004,0.002,0.01,0.003,0.014
				c0,0.001,0,0.001,0.001,0.002c0,0.004,0.002,0.01,0.002,0.014c0.001,0.001,0.001,0.002,0.002,0.003
				c0,0.004,0.002,0.009,0.002,0.013c0,0.001,0.001,0.002,0.002,0.003c0,0.004,0.002,0.009,0.002,0.013
				c0,0.001,0.001,0.002,0.002,0.004c0,0.003,0.001,0.008,0.002,0.012c0,0.001,0.001,0.002,0.002,0.004
				c0,0.004,0.001,0.007,0.002,0.012c0,0.002,0.001,0.002,0.002,0.004c0,0.004,0.001,0.007,0.002,0.012
				c0,0.002,0.001,0.003,0.002,0.004c0,0.004,0.001,0.007,0.002,0.012c0,0.002,0.001,0.003,0.002,0.005
				c0,0.003,0.001,0.007,0.002,0.011c0,0.002,0.001,0.003,0.002,0.005c0,0.004,0.002,0.007,0.002,0.011
				c0,0.002,0.001,0.003,0.002,0.005c0,0.004,0.002,0.007,0.002,0.011c0.001,0.002,0.001,0.004,0.002,0.005
				c0,0.003,0.002,0.009,0.002,0.012c0.001,0.001,0.002,0.003,0.002,0.005c0,0.003,0.002,0.006,0.002,0.011
				c0.001,0.001,0.002,0.003,0.002,0.005c0.001,0.003,0.002,0.007,0.002,0.011c0.001,0.001,0.002,0.003,0.002,0.005
				c0.001,0.003,0.002,0.008,0.003,0.011c0.001,0.002,0.001,0.004,0.001,0.005c0.002,0.003,0.002,0.007,0.003,0.011
				c0.001,0.002,0.001,0.004,0.001,0.005c0.002,0.004,0.002,0.008,0.004,0.011c0,0.002,0,0.004,0.001,0.006
				c0.001,0.003,0.001,0.006,0.003,0.01c0,0.002,0,0.004,0.002,0.006c0,0.003,0.001,0.006,0.002,0.01
				c0,0.002,0.001,0.004,0.002,0.006c0,0.003,0.001,0.006,0.002,0.01c0,0.002,0.002,0.005,0.002,0.007s0.002,0.005,0.002,0.009
				c0.001,0.002,0.002,0.005,0.002,0.007c0.001,0.002,0.002,0.005,0.002,0.008c0.002,0.002,0.002,0.005,0.002,0.008
				c0.002,0.003,0.002,0.005,0.003,0.008c0.001,0.002,0.001,0.005,0.002,0.008c0.001,0.003,0.001,0.005,0.003,0.008
				c0,0.003,0.001,0.005,0.002,0.007c0,0.003,0.001,0.006,0.002,0.009c0,0.003,0.002,0.005,0.002,0.009
				c0.001,0.002,0.002,0.005,0.002,0.007c0.001,0.003,0.002,0.005,0.002,0.009c0.001,0.002,0.002,0.005,0.002,0.007
				c0.002,0.003,0.002,0.005,0.003,0.009c0.001,0.002,0.001,0.005,0.002,0.007c0.001,0.003,0.002,0.006,0.003,0.009
				c0,0.003,0.001,0.005,0.002,0.007c0,0.003,0.002,0.006,0.002,0.009c0.001,0.002,0.002,0.005,0.002,0.007
				c0.001,0.003,0.002,0.006,0.003,0.009c0.001,0.003,0.001,0.005,0.002,0.007c0.001,0.003,0.001,0.006,0.003,0.01
				c0,0.002,0,0.004,0.002,0.006c0,0.003,0.001,0.006,0.002,0.01c0.001,0.002,0.002,0.004,0.002,0.006
				c0.001,0.003,0.002,0.006,0.003,0.01c0.001,0.002,0.001,0.004,0.001,0.006c0.002,0.003,0.002,0.006,0.004,0.01
				c0,0.002,0,0.004,0.002,0.006c0,0.003,0.001,0.006,0.002,0.01c0,0.002,0.002,0.004,0.002,0.006
				c0.001,0.003,0.002,0.006,0.003,0.011c0.001,0.001,0.001,0.003,0.001,0.005c0.002,0.003,0.002,0.008,0.004,0.011
				c0,0.001,0.001,0.003,0.002,0.005c0,0.003,0.002,0.007,0.002,0.011c0.001,0.002,0.002,0.003,0.002,0.005
				c0.001,0.003,0.002,0.007,0.004,0.011c0,0.002,0,0.003,0,0.005c0.002,0.003,0.003,0.007,0.004,0.011
				c0,0.002,0.001,0.003,0.002,0.005c0.001,0.003,0.002,0.007,0.003,0.012c0.001,0.001,0.001,0.002,0.001,0.004
				c0.002,0.003,0.002,0.007,0.004,0.012c0,0.001,0,0.002,0.001,0.004c0.001,0.003,0.003,0.007,0.004,0.012
				c0.001,0.001,0.001,0.002,0.001,0.004c0.002,0.004,0.002,0.007,0.004,0.012c0,0.001,0,0.002,0.001,0.004
				c0.001,0.004,0.003,0.007,0.003,0.012c0.001,0.001,0.002,0.002,0.002,0.004c0.001,0.003,0.002,0.007,0.004,0.012
				c0,0.001,0,0.002,0.001,0.004c0.001,0.003,0.003,0.007,0.003,0.012c0.001,0.001,0.002,0.003,0.002,0.004
				c0.001,0.003,0.002,0.007,0.004,0.012c0,0.001,0,0.002,0.001,0.004c0.001,0.003,0.003,0.008,0.004,0.012
				c0,0.001,0.001,0.002,0.001,0.003c0.001,0.004,0.002,0.01,0.004,0.013c0,0.001,0,0.002,0.001,0.003
				c0.001,0.004,0.003,0.009,0.004,0.013c0.001,0.001,0.001,0.002,0.001,0.003c0.002,0.004,0.003,0.01,0.004,0.013
				c0,0.001,0.001,0.002,0.001,0.003c0.001,0.005,0.003,0.008,0.005,0.014c0,0.001,0,0.001,0,0.002
				c0.002,0.004,0.003,0.009,0.004,0.013c0,0.001,0.001,0.002,0.002,0.003c0.001,0.005,0.002,0.009,0.004,0.014c0,0,0,0.001,0,0.002
				c0.002,0.004,0.004,0.009,0.005,0.014c0,0,0.001,0.001,0.001,0.002c0.001,0.004,0.002,0.009,0.004,0.014c0,0,0,0.001,0.001,0.002
				c0.001,0.004,0.003,0.009,0.005,0.014c0,0,0,0.001,0,0.002c0.002,0.004,0.003,0.01,0.005,0.014c0,0.001,0,0.001,0.001,0.001
				c0.001,0.005,0.002,0.011,0.004,0.015c0,0.001,0,0.001,0,0.001c0.002,0.005,0.004,0.011,0.006,0.015v0.001
				c0.002,0.005,0.003,0.01,0.005,0.015v0.001c0.002,0.005,0.003,0.01,0.005,0.015v0.001c0.002,0.005,0.004,0.011,0.006,0.015v0.001
				c0.004,0.011,0.007,0.019,0.011,0.03h0.001c0.158,0.431,0.345,0.856,0.561,1.27c0.002,0.005,0.005,0.011,0.009,0.016
				c0.002,0.005,0.004,0.01,0.007,0.015c0.003,0.005,0.005,0.011,0.007,0.015c0,0.001,0,0.001,0.001,0.001
				c0.003,0.005,0.005,0.01,0.008,0.015c0,0,0,0,0,0.001c0.003,0.004,0.005,0.008,0.008,0.014c0,0,0,0,0,0.001
				c0.002,0.004,0.005,0.01,0.009,0.014c0,0.001,0,0.001,0,0.001c0.002,0.005,0.004,0.01,0.007,0.015c0.001,0,0.001,0,0.001,0.001
				c0.002,0.004,0.004,0.008,0.006,0.014c0.001,0,0.002,0.001,0.002,0.002c0.002,0.004,0.004,0.009,0.006,0.013
				c0,0.001,0.001,0.001,0.002,0.002c0.002,0.004,0.004,0.009,0.006,0.013c0,0.001,0.001,0.002,0.001,0.002
				c0.003,0.005,0.005,0.009,0.007,0.013c0,0.001,0,0.002,0.001,0.003c0.002,0.004,0.005,0.008,0.007,0.012
				c0,0.001,0,0.003,0.001,0.004c0.002,0.003,0.004,0.007,0.006,0.012c0.001,0.001,0.001,0.002,0.002,0.003
				c0.002,0.004,0.004,0.007,0.006,0.012c0.001,0.001,0.001,0.002,0.002,0.004c0.002,0.003,0.003,0.006,0.005,0.011
				c0.002,0.001,0.002,0.003,0.003,0.004c0.002,0.003,0.004,0.007,0.005,0.011c0.002,0.002,0.002,0.003,0.003,0.005
				c0.002,0.003,0.003,0.006,0.005,0.01c0.001,0.002,0.002,0.004,0.003,0.005c0.002,0.003,0.003,0.006,0.005,0.01
				c0.001,0.002,0.002,0.004,0.003,0.005c0.001,0.003,0.003,0.007,0.005,0.011c0.001,0.001,0.002,0.003,0.003,0.005
				c0.002,0.003,0.003,0.006,0.005,0.01c0.002,0.002,0.002,0.003,0.004,0.005c0.001,0.003,0.002,0.006,0.004,0.01
				c0.002,0.002,0.002,0.003,0.004,0.006c0.001,0.002,0.002,0.005,0.004,0.008c0.002,0.002,0.002,0.004,0.004,0.006
				c0.001,0.003,0.002,0.005,0.004,0.009c0.002,0.002,0.002,0.004,0.004,0.006c0.002,0.003,0.003,0.006,0.004,0.009
				c0.002,0.002,0.003,0.005,0.004,0.007c0.002,0.002,0.003,0.005,0.004,0.007c0.002,0.003,0.003,0.005,0.004,0.008
				c0.002,0.003,0.003,0.005,0.004,0.007c0.002,0.003,0.003,0.005,0.004,0.008c0.002,0.002,0.003,0.004,0.004,0.006
				c0.002,0.003,0.004,0.006,0.005,0.008c0.001,0.002,0.003,0.004,0.003,0.006c0.002,0.003,0.004,0.006,0.006,0.01
				c0,0.002,0.002,0.003,0.002,0.005c0.002,0.003,0.004,0.006,0.006,0.01c0.001,0.002,0.002,0.004,0.003,0.005
				c0.001,0.003,0.003,0.007,0.005,0.011c0.001,0.001,0.002,0.003,0.003,0.004c0.002,0.003,0.004,0.007,0.006,0.011
				c0.001,0.002,0.001,0.003,0.002,0.004c0.002,0.004,0.004,0.007,0.008,0.011c0,0.002,0,0.003,0.002,0.004
				c0.002,0.004,0.004,0.007,0.006,0.012c0,0.001,0.001,0.002,0.002,0.003c0.002,0.004,0.004,0.009,0.006,0.012
				c0.001,0.001,0.002,0.002,0.002,0.003c0.002,0.004,0.004,0.009,0.007,0.013c0,0,0.001,0.001,0.001,0.002
				c0.002,0.004,0.005,0.009,0.009,0.013c0,0.001,0,0.001,0,0.002c0.003,0.004,0.006,0.009,0.009,0.013c0,0.001,0,0.001,0.001,0.002
				c0.003,0.004,0.005,0.009,0.007,0.014c0.001,0,0.001,0,0.002,0.001c0.002,0.004,0.004,0.01,0.008,0.014c0,0,0,0,0,0.001
				c0.002,0.004,0.005,0.01,0.009,0.014v0.001c0.046,0.075,0.093,0.15,0.141,0.225c0.004,0.006,0.009,0.013,0.012,0.019
				l16.392,25.517c1.229,1.912,3.035,3.381,5.157,4.195c20.566,7.887,36.914,14.79,50.432,21.385H135.402
				c13.519-6.669,29.866-13.571,50.432-21.459c2.122-0.814,3.929-2.284,5.156-4.196c9.653-15.026,12.269-19.248,13.947-22.155
				c0.139-0.24,0.294-0.48,0.447-0.718c7.304-11.505-1.446-17.552-2.459-18.199l-2.713-1.729
				c-20.646-13.132-24.942-15.864-32.594-62.338c-0.527-3.211-1.283-7.148-2.156-11.709c-1.477-7.695-3.449-17.998-4.969-28.787
				c37.089-1.048,102.88-7.585,145.006-38.611c3.341,8.179,7.974,16.947,14.331,24.684c8.646,10.524,19.123,17.334,30.758,20.101
				C349.248,291.453,347.729,299.368,346.538,305.583z M351.772,231.052c2.338,7.822,2.425,18.872,1.47,30.5
				c-19.971-6.442-29.129-32.433-32.358-44.488c-0.988-3.682-3.863-6.557-7.544-7.544c-3.683-0.987-7.61,0.067-10.305,2.761
				c-25.837,25.837-79.471,41.749-144.675,43.215c-0.353-7.298-0.181-14.157,0.825-19.885c17.716-0.927,40.001-4.385,58.189-9.159
				c5.699-1.496,9.107-7.328,7.611-13.029c-1.496-5.699-7.328-9.1-13.028-7.611c-13.746,3.608-30.458,6.457-44.985,7.826
				c16.91-35.074,49.666-56.183,89.028-56.183C301.514,157.455,338.212,185.657,351.772,231.052z"/>
			<path d="M282.201,61.643h10.827v42.599c0,2.511,3.059,3.765,6.12,3.765c3.059,0,6.117-1.255,6.117-3.765V61.643h10.826
				c2.355,0,3.687-2.587,3.687-5.568c0-2.589-1.098-5.412-3.687-5.412h-33.891c-2.586,0-3.686,2.823-3.686,5.412
				C278.515,59.055,279.849,61.643,282.201,61.643z"/>
			<path d="M337.75,108.007h27.931c2.588,0,3.686-2.745,3.686-5.256c0-2.902-1.334-5.412-3.686-5.412h-21.025V84.001h11.766
				c2.589,0,3.687-2.508,3.687-4.629c0-2.509-1.335-4.785-3.687-4.785h-11.766V61.33h21.025c2.352,0,3.686-2.511,3.686-5.412
				c0-2.511-1.098-5.256-3.686-5.256H337.75c-2.667,0-5.331,1.255-5.331,3.765v49.814
				C332.418,106.753,335.083,108.007,337.75,108.007z"/>
			<path d="M387.807,108.007h13.887c10.827,0,19.299-5.02,19.299-18.512v-20.32c0-13.494-8.471-18.513-19.299-18.513h-13.887
				c-3.217,0-5.333,1.725-5.333,3.687v49.971C382.475,106.281,384.592,108.007,387.807,108.007z M394.713,61.33h6.982
				c4.392,0,7.059,2.511,7.059,7.845v20.32c0,5.333-2.667,7.844-7.059,7.844h-6.982V61.33z"/>
			<path d="M175.733,108.007c1.963,0,3.531-0.627,4.002-2.275l2.667-9.807h16.552l2.667,9.807c0.47,1.647,2.04,2.275,4.001,2.275
				c3.375,0,7.846-2.118,7.846-5.02c0-0.237-0.078-0.549-0.158-0.864L198.643,54.27c-0.865-2.747-4.394-4.08-8.004-4.08
				c-3.607,0-7.138,1.333-8.002,4.08l-14.593,47.853c-0.077,0.315-0.156,0.627-0.156,0.864
				C167.888,105.889,172.36,108.007,175.733,108.007z M190.638,65.488l5.726,21.025h-11.451L190.638,65.488z"/>
			<path d="M106.77,104.401c0.863,2.743,4.469,4.078,8.078,4.078c3.531,0,7.295-1.335,7.923-4.078l4.08-18.593l4.08,18.593
				c0.627,2.743,4.392,4.078,7.927,4.078c3.606,0,7.136-1.335,8.076-4.078l15.613-47.857c0.079-0.236,0.158-0.626,0.158-1.019
				c0-2.667-4.394-4.864-7.923-4.864c-1.884,0-3.452,0.627-3.924,2.275L138.932,93.18l-6.197-26.516
				c-0.468-2.118-3.218-3.217-5.885-3.217c-2.667,0-5.411,1.098-5.883,3.217l-6.198,26.516l-11.92-40.244
				c-0.47-1.647-2.04-2.275-3.924-2.275c-3.532,0-7.924,2.197-7.924,4.864c0,0.393,0.078,0.783,0.156,1.02L106.77,104.401z"/>
			<path d="M231.911,108.007c3.059,0,6.117-1.255,6.117-3.765V77.569l14.907,27.143c1.488,2.745,3.999,3.294,6.823,3.294
				c3.061,0,6.122-1.255,6.122-3.765V54.348c0-2.591-3.061-3.687-6.122-3.687c-3.057,0-6.116,1.096-6.116,3.687v26.673
				l-12.707-24.24c-2.982-5.729-4.63-6.12-9.023-6.12c-3.061,0-6.118,1.177-6.118,3.765v49.814
				C225.792,106.753,228.849,108.007,231.911,108.007z"/>
			<path d="M238.15,195.839l-0.185,0.117l-0.023,0.015c-5.022,3.084-6.579,9.647-3.496,14.667c2.011,3.278,5.516,5.081,9.103,5.081
				c1.909,0,3.841-0.511,5.583-1.581c0.326-0.201,0.326-0.202,0.447-0.282l0.102-0.065c4.957-3.184,6.395-9.784,3.211-14.742
				C249.707,194.092,243.107,192.654,238.15,195.839z"/>
			<path d="M362.66,151.925c0,5.891,4.776,10.669,10.669,10.669h0.254c5.891,0,10.669-4.777,10.669-10.669
				s-4.777-10.669-10.669-10.669h-0.254C367.437,141.257,362.66,146.034,362.66,151.925z"/>
		</g>
	</g>
</g>
<g>
</g>
<g>
</g>
<g>
</g>
<g>
</g>
<g>
</g>
<g>
</g>
<g>
</g>
<g>
</g>
<g>
</g>
<g>
</g>
<g>
</g>
<g>
</g>
<g>
</g>
<g>
</g>
<g>
</g>
</svg>
